<?xml version="1.0" encoding="UTF-8"?><svg id="a" xmlns="http://www.w3.org/2000/svg" viewBox="0 0 988.62 259"><defs><style>.b{fill:#d9ff00;}.c{fill:#d9d9d9;}.d{fill:#1b4613;}.e{fill:#6f6f6f;}.f{fill:#313131;}</style></defs><path class="e" d="M53.01,259H935.61c33.9-24.19,53.01-51.54,53.01-80.5C988.62,79.92,767.31,0,494.31,0S0,79.92,0,178.5c0,28.96,19.11,56.31,53.01,80.5Z"/><path class="f" d="M341.37,204.25c0-4,3.28-7.25,7.33-7.25h40.33c4.05,0,7.33,3.25,7.33,7.25v14.5c0,4-3.28,7.25-7.33,7.25h-40.33c-4.05,0-7.33-3.25-7.33-7.25v-14.5Z"/><path class="f" d="M409.37,204.25c0-4,3.28-7.25,7.33-7.25h40.33c4.05,0,7.33,3.25,7.33,7.25v14.5c0,4-3.28,7.25-7.33,7.25h-40.33c-4.05,0-7.33-3.25-7.33-7.25v-14.5Z"/><path class="f" d="M633.37,211.5c0,8.01-6.49,14.5-14.5,14.5s-14.5-6.49-14.5-14.5,6.49-14.5,14.5-14.5,14.5,6.49,14.5,14.5Z"/><path class="f" d="M595.37,211.5c0,8.01-6.72,14.5-15,14.5s-15-6.49-15-14.5,6.72-14.5,15-14.5,15,6.49,15,14.5Z"/><path class="f" d="M556.37,211.5c0,8.01-6.72,14.5-15,14.5s-15-6.49-15-14.5,6.72-14.5,15-14.5,15,6.49,15,14.5Z"/><path class="c" d="M679.65,172.59c6.83-21.29,29.63-33.01,50.92-26.17,21.29,6.83,33.01,29.63,26.17,50.92-6.83,21.29-29.63,33.01-50.92,26.17s-33.01-29.63-26.17-50.92Z"/><path class="c" d="M749.21,109.68c6.83-21.29,29.63-33.01,50.92-26.17,21.29,6.83,33.01,29.63,26.17,50.92-6.83,21.29-29.63,33.01-50.92,26.17-21.29-6.83-33.01-29.63-26.17-50.92Z"/><path class="c" d="M658.85,80.87c6.83-21.29,29.63-33.01,50.92-26.17,21.29,6.83,33.01,29.63,26.17,50.92-6.83,21.29-29.63,33.01-50.92,26.17s-33.01-29.63-26.17-50.92Z"/><path class="f" d="M705.37,91.17c0,5.43-3.36,9.83-7.5,9.83s-7.5-4.4-7.5-9.83,5.46-32.17,7.5-32.17,7.5,26.74,7.5,32.17Z"/><path class="f" d="M781.09,127.06c-3.21-4.43-3.13-9.96,.16-12.34,3.29-2.38,8.56-.72,11.77,3.72,3.21,4.43,14.66,29.41,13.03,30.58-1.63,1.18-21.75-17.53-24.96-21.96Z"/><path class="f" d="M714.4,179.07c4.94-2.35,10.36-1.27,12.11,2.4,1.74,3.67-.85,8.55-5.79,10.9-4.94,2.35-31.58,9.08-32.44,7.27-.86-1.81,21.18-18.21,26.12-20.56Z"/><path class="f" d="M179.37,83h11V226h-11V83Z"/><path class="f" d="M230.37,64h11V226h-11V64Z"/><path class="f" d="M282.37,53h11V226h-11V53Z"/><path class="c" d="M160.37,110.4c0-2.98,2.48-5.4,5.54-5.4h36.92c3.06,0,5.54,2.42,5.54,5.4v7.2c0,2.98-2.48,5.4-5.54,5.4h-36.92c-3.06,0-5.54-2.42-5.54-5.4v-7.2Z"/><path class="c" d="M212.37,189.4c0-2.98,2.48-5.4,5.54-5.4h36.92c3.06,0,5.54,2.42,5.54,5.4v7.2c0,2.98-2.48,5.4-5.54,5.4h-36.92c-3.06,0-5.54-2.42-5.54-5.4v-7.2Z"/><path class="c" d="M263.37,143.4c0-2.98,2.48-5.4,5.54-5.4h36.92c3.06,0,5.54,2.42,5.54,5.4v7.2c0,2.98-2.48,5.4-5.54,5.4h-36.92c-3.06,0-5.54-2.42-5.54-5.4v-7.2Z"/><path class="b" d="M363.41,56.9h247.92c12.12,0,22.04,9.92,22.04,22.04v77.13c0,12.12-9.92,22.04-22.04,22.04h-247.92c-12.12,0-22.04-9.92-22.04-22.04V78.93c0-12.12,9.92-22.04,22.04-22.04Z"/><polygon class="d" points="558.44 170.21 537.51 101.34 528.88 127.42 449.36 127.42 439.44 110.52 415.2 149.82 395 109.42 384.71 125.76 341.37 125.76 341.37 114.75 378.65 114.75 396.1 86.83 416.3 127.23 439.81 89.03 455.6 116.4 520.98 116.4 538.06 64.79 559.36 135.5 567.08 114.75 633.37 114.75 633.37 125.76 574.79 125.76 558.44 170.21"/><path class="b" d="M363.41,56.9h247.92c12.12,0,22.04,9.92,22.04,22.04v77.13c0,12.12-9.92,22.04-22.04,22.04h-247.92c-12.12,0-22.04-9.92-22.04-22.04V78.93c0-12.12,9.92-22.04,22.04-22.04Z"/><path class="d" d="M417.04,141.74c0,2.75-.73,5.33-2.2,7.71s-3.31,4.22-5.69,5.69-4.96,2.2-7.71,2.2h-31.4c-1.47,0-2.75-.55-3.86-1.47-1.1-1.1-1.47-2.39-1.47-3.86V83.16c0-1.65,.55-2.94,1.47-3.86,1.1-1.1,2.39-1.47,3.86-1.47h29.75c2.94,0,5.51,.73,7.71,2.02,2.39,1.47,4.22,3.31,5.69,5.69,1.47,2.39,2.02,4.96,2.02,7.9v13.96c0,2.02-.37,4.04-1.1,5.88-.37,.92-.37,1.65,.18,2.57,1.65,2.57,2.57,5.51,2.57,8.63l.18,17.26h0Zm-15.43-34.34v-13.96c0-.55-.18-.92-.55-1.1-.37-.37-.73-.55-1.1-.55h-19.47c-1.1,0-1.47,.55-1.47,1.47v14.14c0,.92,.55,1.47,1.47,1.47h19.47c.37,0,.73-.18,1.1-.55,.37-.18,.55-.55,.55-.92Zm1.47,34.34v-17.08c0-1.1-.55-1.65-1.47-1.65h-21.12c-1.1,0-1.47,.55-1.47,1.47v17.45c0,.92,.55,1.47,1.47,1.47h21.12c.37,0,.73-.18,1.1-.55,.18-.37,.37-.73,.37-1.1Zm84.29,8.45c.55,1.84,.18,3.49-.73,4.96-1.1,1.47-2.39,2.2-4.41,2.2h-3.49c-1.1,0-2.2-.37-3.12-1.1-.92-.73-1.65-1.47-2.02-2.57l-4.41-13.59c-.37-.92-.92-1.47-2.02-1.47h-20.02c-1.1,0-1.65,.55-2.02,1.47l-4.41,13.59c-.37,.92-1.1,1.84-2.02,2.57s-2.02,1.1-3.12,1.1h-3.49c-1.84,0-3.31-.73-4.41-2.2-1.1-1.47-1.29-3.31-.73-4.96l22.77-68.68c.37-1.1,1.1-2.02,1.84-2.57,.92-.73,2.02-1.1,3.12-1.1h4.77c1.1,0,2.02,.37,3.12,1.1,.92,.55,1.47,1.47,1.84,2.57l22.96,68.68Zm-23.69-27l-5.88-18c-.37-.55-.92-.55-1.29,0l-5.88,18c-.18,.37-.18,.73,.18,1.1,.18,.37,.55,.55,.92,.55h10.84c.37,0,.73-.18,.92-.55,.37-.37,.37-.73,.18-1.1Zm85.58,18.55c0,2.75-.73,5.33-2.2,7.71-1.47,2.39-3.31,4.22-5.69,5.69s-4.96,2.2-7.71,2.2h-21.12c-2.75,0-5.51-.73-7.9-2.2s-4.22-3.31-5.69-5.69-2.2-4.96-2.2-7.71v-48.3c0-2.94,.73-5.51,2.2-7.9,1.47-2.39,3.31-4.22,5.69-5.69s5.14-2.2,7.9-2.2h21.12c2.75,0,5.33,.73,7.71,2.02,2.39,1.47,4.22,3.31,5.69,5.69,1.47,2.39,2.02,4.96,2.02,7.9v3.12c0,1.47-.55,2.75-1.47,3.86-1.1,.92-2.39,1.47-3.86,1.47h-3.12c-1.47,0-2.75-.55-3.86-1.47-1.1-1.1-1.47-2.2-1.47-3.86v-3.12c0-1.1-.55-1.65-1.47-1.65h-21.12c-1.1,0-1.47,.55-1.47,1.65v48.3c0,.37,.18,.73,.55,1.1,.37,.37,.73,.55,1.1,.55h21.12c.37,0,.73-.18,1.1-.55,.37-.37,.55-.73,.55-1.1v-3.49c0-1.47,.55-2.75,1.47-3.67,1.1-1.1,2.39-1.65,3.86-1.65h3.12c1.65,0,2.94,.55,3.86,1.65,1.1,.92,1.47,2.2,1.47,3.67l-.18,3.67h0Zm60.24-60.79c.37,.92,.55,2.02,.37,3.12,0,1.1-.55,2.02-1.29,2.75l-27,29.57c-.73,.73-.73,1.47,0,2.2l27,29.57c.73,.73,1.29,1.65,1.29,2.75,.18,.92,0,2.02-.37,2.94s-1.1,1.84-2.02,2.39-1.84,.92-2.75,.92h-4.41c-1.47,0-2.75-.55-3.86-1.84l-22.22-24.43c-.18-.18-.37-.18-.73-.18-.18,0-.37,.18-.37,.55v20.38c0,1.47-.55,2.75-1.65,3.86-1.1,.92-2.2,1.47-3.86,1.47h-3.31c-1.47,0-2.75-.55-3.86-1.47-1.1-1.1-1.47-2.39-1.47-3.86V83.16c0-1.65,.55-2.94,1.47-3.86,1.1-1.1,2.2-1.47,3.86-1.47h3.31c1.47,0,2.75,.55,3.86,1.47,1.1,1.1,1.65,2.39,1.65,3.86v20.38c0,.37,.18,.55,.37,.55,.37,0,.55,0,.73-.18l22.22-24.43c1.1-1.1,2.57-1.84,4.04-1.84h4.41c2.02,.18,3.67,1.1,4.59,3.31Z"/><path class="b" d="M363.41,56.9h247.92c12.12,0,22.04,9.92,22.04,22.04v77.13c0,12.12-9.92,22.04-22.04,22.04h-247.92c-12.12,0-22.04-9.92-22.04-22.04V78.93c0-12.12,9.92-22.04,22.04-22.04Z"/><path class="d" d="M422.91,151.84c0,1.47-.55,2.75-1.65,3.86-1.1,.92-2.2,1.47-3.86,1.47h-3.49c-2.02,0-3.67-.92-4.77-2.75l-24.98-43.34c-.18-.37-.37-.37-.73-.18-.37,0-.55,.18-.55,.55v40.4c0,1.47-.55,2.75-1.65,3.86-1.1,.92-2.2,1.47-3.67,1.47h-3.31c-1.47,0-2.75-.55-3.86-1.47-1.1-1.1-1.47-2.39-1.47-3.86V83.16c0-1.65,.55-2.94,1.47-3.86,1.1-1.1,2.39-1.47,3.86-1.47h3.49c2.02,0,3.67,.92,4.77,2.75l24.98,43.34c.18,.37,.55,.37,.73,.37,.37,0,.55-.18,.55-.55v-40.4c0-1.65,.55-2.94,1.47-3.86,1.1-1.1,2.39-1.47,3.86-1.47h3.12c1.47,0,2.75,.55,3.67,1.47,1.1,1.1,1.65,2.39,1.65,3.86l.37,68.5h0Zm60.42,0c0,1.47-.55,2.75-1.65,3.86-.92,.92-2.2,1.47-3.67,1.47h-40.4c-1.47,0-2.57-.55-3.86-1.47-1.1-1.1-1.47-2.39-1.47-3.86V83.16c0-1.65,.55-2.94,1.47-3.86,1.1-1.1,2.39-1.47,3.86-1.47h40.4c1.47,0,2.57,.55,3.67,1.47,1.1,1.1,1.65,2.39,1.65,3.86v3.12c0,1.47-.55,2.75-1.65,3.86-1.1,1.1-2.2,1.47-3.67,1.47h-30.3c-.92,0-1.47,.55-1.47,1.47v15.61c0,1.1,.55,1.65,1.47,1.65h26.08c1.65,0,2.94,.55,3.86,1.47s1.47,2.2,1.47,3.67v3.31c0,1.47-.55,2.75-1.47,3.86-1.1,.92-2.39,1.47-3.86,1.47h-26.08c-.92,0-1.47,.55-1.47,1.47v15.79c0,.92,.55,1.47,1.47,1.47h30.3c1.47,0,2.57,.55,3.67,1.47s1.65,2.39,1.65,3.86v3.67Zm59.87-66.11l-16.34,30.3c-.37,.92-.37,1.84,0,2.75l16.34,30.49c.92,1.84,.92,3.49-.18,5.33-1.1,1.65-2.57,2.57-4.77,2.57h-3.49c-2.2,0-3.86-.92-4.77-2.75l-11.2-20.75c0-.37-.37-.55-.73-.55s-.55,.18-.73,.55l-11.2,20.75c-.37,.92-.92,1.47-1.84,2.2-.92,.55-1.84,.73-2.75,.73h-3.67c-2.02,0-3.49-.92-4.59-2.57s-1.1-3.49-.18-5.33l16.34-30.49c.37-.92,.37-1.84,0-2.75l-16.34-30.3c-.92-2.02-.92-3.86,.18-5.33,1.1-1.65,2.57-2.57,4.59-2.57h3.67c2.02,0,3.67,.92,4.77,2.75l11.2,20.75c.18,.37,.37,.55,.73,.55s.55-.18,.73-.55l11.2-20.75c1.1-1.84,2.57-2.75,4.77-2.75h3.67c2.02,0,3.49,.92,4.59,2.57,.92,1.47,.92,3.31,0,5.14Zm62.26,.55c0,1.47-.55,2.75-1.47,3.86s-2.39,1.47-3.86,1.47h-12.3c-1.1,0-1.47,.55-1.47,1.47v58.58c0,1.47-.55,2.75-1.65,3.86-1.1,.92-2.2,1.47-3.86,1.47h-3.12c-1.47,0-2.75-.55-3.86-1.47-1.1-1.1-1.47-2.39-1.47-3.86v-58.4c0-1.1-.55-1.47-1.47-1.47h-12.49c-1.47,0-2.75-.55-3.86-1.47-1.1-1.1-1.47-2.39-1.47-3.86v-3.12c0-1.65,.55-2.94,1.47-3.86,1.1-1.1,2.39-1.47,3.86-1.47h41.69c1.65,0,2.94,.55,3.86,1.47,1.1,1.1,1.47,2.39,1.47,3.86v2.94h0Z"/></svg>