<?xml version="1.0" encoding="UTF-8"?><svg id="a" xmlns="http://www.w3.org/2000/svg" viewBox="0 0 745 201"><defs><style>.b{fill:#6f6f6f;}.c{fill:#313131;}</style></defs><path class="b" d="M2.93,0C1,7.37,0,14.88,0,22.5,0,121.08,166.77,201,372.5,201S745,121.08,745,22.5c0-7.62-1-15.13-2.93-22.5H2.93Z"/><path class="c" d="M383,155.5c0,8.01-6.72,14.5-15,14.5s-15-6.49-15-14.5,6.72-14.5,15-14.5,15,6.49,15,14.5Z"/><path class="c" d="M319,151.08c0,6.67-5.6,12.08-12.5,12.08s-12.5-5.41-12.5-12.08,5.6-12.08,12.5-12.08,12.5,5.41,12.5,12.08Z"/><path class="c" d="M265,141.67c0,5.34-4.48,9.67-10,9.67s-10-4.33-10-9.67,4.48-9.67,10-9.67,10,4.33,10,9.67Z"/><path class="c" d="M417,151.08c0,6.67,5.6,12.08,12.5,12.08s12.5-5.41,12.5-12.08-5.6-12.08-12.5-12.08-12.5,5.41-12.5,12.08Z"/><path class="c" d="M471,141.67c0,5.34,4.48,9.67,10,9.67s10-4.33,10-9.67-4.48-9.67-10-9.67-10,4.33-10,9.67Z"/></svg>