<?xml version="1.0" encoding="utf-8"?>
<!-- Generator: Adobe Illustrator 27.0.1, SVG Export Plug-In . SVG Version: 6.00 Build 0)  -->
<svg version="1.1" id="Layer_1" xmlns="http://www.w3.org/2000/svg" xmlns:xlink="http://www.w3.org/1999/xlink" x="0px" y="0px"
	 viewBox="0 0 281.55 43.26" style="enable-background:new 0 0 281.55 43.26;" xml:space="preserve">
<style type="text/css">
	.st0{fill:#313131;}
</style>
<path class="st0" d="M27.46,1.73c0.21,0.51,0.28,1.07,0.19,1.66c-0.04,0.55-0.28,1.07-0.7,1.54L12.29,21.06
	c-0.38,0.38-0.38,0.79,0,1.22l14.66,16.06c0.43,0.43,0.66,0.94,0.7,1.54c0.09,0.55,0.02,1.09-0.19,1.6c-0.21,0.55-0.58,1-1.09,1.34
	c-0.47,0.3-0.98,0.45-1.54,0.45H22.4c-0.77,0-1.47-0.32-2.11-0.96L8.19,28.99c-0.09-0.13-0.21-0.15-0.38-0.06
	c-0.13,0.04-0.19,0.13-0.19,0.26v11.14c0,0.81-0.3,1.51-0.9,2.11c-0.55,0.55-1.24,0.83-2.05,0.83H2.88c-0.81,0-1.49-0.28-2.05-0.83
	C0.28,41.83,0,41.13,0,40.32V2.94c0-0.85,0.28-1.56,0.83-2.11C1.39,0.28,2.07,0,2.88,0h1.79c0.81,0,1.49,0.28,2.05,0.83
	c0.6,0.55,0.9,1.26,0.9,2.11v11.07c0,0.17,0.06,0.28,0.19,0.32c0.17,0.04,0.3,0.02,0.38-0.06l12.1-13.31C20.93,0.32,21.65,0,22.46,0
	h2.37C26.07,0,26.94,0.58,27.46,1.73z M69.23,34.82c0,1.54-0.38,2.94-1.15,4.22c-0.77,1.28-1.79,2.3-3.07,3.07
	c-1.28,0.77-2.69,1.15-4.22,1.15H48.49c-1.54,0-2.96-0.38-4.29-1.15c-1.28-0.77-2.3-1.79-3.07-3.07c-0.77-1.28-1.15-2.69-1.15-4.22
	V8.51c0-1.58,0.38-3.01,1.15-4.29c0.77-1.28,1.79-2.3,3.07-3.07C45.52,0.38,46.95,0,48.49,0h12.29c1.54,0,2.94,0.38,4.22,1.15
	s2.3,1.79,3.07,3.07c0.77,1.28,1.15,2.71,1.15,4.29V34.82z M61.61,34.82V8.51c0-0.6-0.28-0.9-0.83-0.9H48.49
	c-0.21,0-0.43,0.09-0.64,0.26c-0.17,0.17-0.26,0.38-0.26,0.64v26.3c0,0.21,0.09,0.43,0.26,0.64c0.21,0.17,0.43,0.26,0.64,0.26h12.29
	c0.21,0,0.41-0.09,0.58-0.26C61.52,35.24,61.61,35.03,61.61,34.82z M110.77,34.82c0,1.54-0.38,2.94-1.15,4.22
	c-0.77,1.28-1.79,2.3-3.07,3.07c-1.28,0.77-2.69,1.15-4.22,1.15H90.03c-1.54,0-2.96-0.38-4.29-1.15c-1.28-0.77-2.3-1.79-3.07-3.07
	c-0.77-1.28-1.15-2.69-1.15-4.22V32.9c0-0.81,0.28-1.49,0.83-2.05c0.6-0.6,1.3-0.9,2.11-0.9h1.79c0.77,0,1.43,0.3,1.98,0.9
	c0.6,0.55,0.9,1.24,0.9,2.05v1.92c0,0.21,0.09,0.43,0.26,0.64c0.21,0.17,0.43,0.26,0.64,0.26h12.29c0.21,0,0.41-0.09,0.58-0.26
	c0.17-0.21,0.26-0.43,0.26-0.64v-5.82c0-0.47-0.21-0.77-0.64-0.9l-15.36-5.76c-1.71-0.6-3.07-1.64-4.1-3.14
	c-1.02-1.49-1.54-3.14-1.54-4.93V8.51c0-1.58,0.38-3.01,1.15-4.29c0.77-1.28,1.79-2.3,3.07-3.07C87.06,0.38,88.49,0,90.03,0h12.29
	c1.54,0,2.94,0.38,4.22,1.15c1.28,0.77,2.3,1.79,3.07,3.07c0.77,1.28,1.15,2.71,1.15,4.29v1.73c0,0.81-0.3,1.49-0.9,2.05
	c-0.55,0.55-1.24,0.83-2.05,0.83h-1.73c-0.81,0-1.51-0.28-2.11-0.83c-0.55-0.55-0.83-1.24-0.83-2.05V8.51c0-0.6-0.28-0.9-0.83-0.9
	H90.03c-0.21,0-0.43,0.09-0.64,0.26c-0.17,0.17-0.26,0.38-0.26,0.64v5.76c0,0.51,0.21,0.83,0.64,0.96l15.42,5.76
	c1.66,0.6,3.01,1.64,4.03,3.14c1.02,1.49,1.54,3.11,1.54,4.86V34.82z M156.91,40.32c0,0.81-0.28,1.51-0.83,2.11
	c-0.55,0.55-1.26,0.83-2.11,0.83h-1.73c-0.81,0-1.51-0.28-2.11-0.83c-0.55-0.6-0.83-1.3-0.83-2.11V21.06c0-0.17-0.09-0.28-0.26-0.32
	c-0.13-0.04-0.23,0-0.32,0.13l-6.14,12.67c-0.13,0.34-0.4,0.64-0.83,0.9c-0.43,0.26-0.83,0.47-1.22,0.64
	c-0.34,0.13-0.51,0.19-0.51,0.19c-1.32,0-2.2-0.58-2.62-1.73l-6.14-12.67c-0.04-0.13-0.15-0.17-0.32-0.13
	c-0.17,0.04-0.26,0.15-0.26,0.32v19.26c0,0.81-0.3,1.51-0.9,2.11c-0.55,0.55-1.24,0.83-2.05,0.83h-1.79c-0.81,0-1.51-0.28-2.11-0.83
	c-0.55-0.6-0.83-1.3-0.83-2.11V2.94c0-0.85,0.28-1.56,0.83-2.11c0.6-0.55,1.3-0.83,2.11-0.83h1.86c1.19,0,2.07,0.55,2.62,1.66
	c0.21,0.47,0.64,1.39,1.28,2.75c0.68,1.32,1.47,2.9,2.37,4.74c0.9,1.83,1.81,3.78,2.75,5.82c0.98,2.01,1.92,3.93,2.82,5.76
	c0.09,0.17,0.19,0.26,0.32,0.26c0.17,0,0.3-0.09,0.38-0.26l9.15-19.07c0.55-1.11,1.45-1.66,2.69-1.66h1.79
	c0.85,0,1.56,0.28,2.11,0.83c0.55,0.55,0.83,1.26,0.83,2.11V40.32z M198.47,34.82c0,1.54-0.38,2.94-1.15,4.22
	c-0.77,1.28-1.79,2.3-3.07,3.07c-1.28,0.77-2.69,1.15-4.22,1.15h-12.29c-1.54,0-2.96-0.38-4.29-1.15c-1.28-0.77-2.3-1.79-3.07-3.07
	c-0.77-1.28-1.15-2.69-1.15-4.22V8.51c0-1.58,0.38-3.01,1.15-4.29c0.77-1.28,1.79-2.3,3.07-3.07C174.77,0.38,176.2,0,177.73,0h12.29
	c1.54,0,2.94,0.38,4.22,1.15s2.3,1.79,3.07,3.07c0.77,1.28,1.15,2.71,1.15,4.29V34.82z M190.85,34.82V8.51c0-0.6-0.28-0.9-0.83-0.9
	h-12.29c-0.21,0-0.43,0.09-0.64,0.26c-0.17,0.17-0.26,0.38-0.26,0.64v26.3c0,0.21,0.09,0.43,0.26,0.64
	c0.21,0.17,0.43,0.26,0.64,0.26h12.29c0.21,0,0.41-0.09,0.58-0.26C190.77,35.24,190.85,35.03,190.85,34.82z M240.01,34.82
	c0,1.54-0.38,2.94-1.15,4.22c-0.77,1.28-1.79,2.3-3.07,3.07c-1.28,0.77-2.69,1.15-4.22,1.15h-12.29c-1.54,0-2.96-0.38-4.29-1.15
	c-1.28-0.77-2.3-1.79-3.07-3.07c-0.77-1.28-1.15-2.69-1.15-4.22V8.51c0-1.58,0.38-3.01,1.15-4.29c0.77-1.28,1.79-2.3,3.07-3.07
	c1.32-0.77,2.75-1.15,4.29-1.15h12.29c1.54,0,2.94,0.38,4.22,1.15s2.3,1.79,3.07,3.07c0.77,1.28,1.15,2.71,1.15,4.29V34.82z
	 M232.39,34.82V8.51c0-0.6-0.28-0.9-0.83-0.9h-12.29c-0.21,0-0.43,0.09-0.64,0.26c-0.17,0.17-0.26,0.38-0.26,0.64v26.3
	c0,0.21,0.09,0.43,0.26,0.64c0.21,0.17,0.43,0.26,0.64,0.26h12.29c0.21,0,0.41-0.09,0.58-0.26
	C232.31,35.24,232.39,35.03,232.39,34.82z M281.55,34.82c0,1.54-0.38,2.94-1.15,4.22c-0.77,1.28-1.79,2.3-3.07,3.07
	c-1.28,0.77-2.69,1.15-4.22,1.15h-12.29c-1.54,0-2.96-0.38-4.29-1.15c-1.28-0.77-2.3-1.79-3.07-3.07c-0.77-1.28-1.15-2.69-1.15-4.22
	V32.9c0-0.81,0.28-1.49,0.83-2.05c0.6-0.6,1.3-0.9,2.11-0.9h1.79c0.77,0,1.43,0.3,1.98,0.9c0.6,0.55,0.9,1.24,0.9,2.05v1.92
	c0,0.21,0.09,0.43,0.26,0.64c0.21,0.17,0.43,0.26,0.64,0.26h12.29c0.21,0,0.41-0.09,0.58-0.26c0.17-0.21,0.26-0.43,0.26-0.64v-5.82
	c0-0.47-0.21-0.77-0.64-0.9l-15.36-5.76c-1.71-0.6-3.07-1.64-4.1-3.14c-1.02-1.49-1.54-3.14-1.54-4.93V8.51
	c0-1.58,0.38-3.01,1.15-4.29c0.77-1.28,1.79-2.3,3.07-3.07c1.32-0.77,2.75-1.15,4.29-1.15h12.29c1.54,0,2.94,0.38,4.22,1.15
	s2.3,1.79,3.07,3.07c0.77,1.28,1.15,2.71,1.15,4.29v1.73c0,0.81-0.3,1.49-0.9,2.05c-0.55,0.55-1.24,0.83-2.05,0.83h-1.73
	c-0.81,0-1.51-0.28-2.11-0.83c-0.55-0.55-0.83-1.24-0.83-2.05V8.51c0-0.6-0.28-0.9-0.83-0.9h-12.29c-0.21,0-0.43,0.09-0.64,0.26
	c-0.17,0.17-0.26,0.38-0.26,0.64v5.76c0,0.51,0.21,0.83,0.64,0.96l15.42,5.76c1.66,0.6,3.01,1.64,4.03,3.14
	c1.02,1.49,1.54,3.11,1.54,4.86V34.82z"/>
</svg>
