<?xml version="1.0" encoding="utf-8"?>
<!-- Generator: Adobe Illustrator 27.0.1, SVG Export Plug-In . SVG Version: 6.00 Build 0)  -->
<svg version="1.1" id="Layer_1" xmlns="http://www.w3.org/2000/svg" xmlns:xlink="http://www.w3.org/1999/xlink" x="0px" y="0px"
	 viewBox="0 0 68.47 41" style="enable-background:new 0 0 68.47 41;" xml:space="preserve">
<style type="text/css">
	.st0{fill:#313131;}
</style>
<path class="st0" d="M68.24,9.24c-1.72-4.88-11.41-4.21-19.24-2.79c-0.34,0.06-0.71,0.14-1.06,0.21C44.18,2.58,38.82,0,32.85,0
	C21.87,0,12.91,8.68,12.4,19.53c-0.36,0.2-0.71,0.4-1.05,0.6c-8.63,5.02-12.37,9.4-11.1,13c0.98,2.78,4.55,3.82,9.29,3.82
	c2.95,0,6.34-0.41,9.83-1.05c3.61,3.17,8.32,5.1,13.49,5.1c9.95,0,18.26-7.13,20.11-16.54C62.01,19.86,69.95,14.13,68.24,9.24z
	 M32.85,4c9.1,0,16.5,7.4,16.5,16.5c0,0.47-0.03,0.92-0.07,1.38c-3.63,1.75-7.93,3.56-12.93,5.32c-5.98,2.1-11.22,3.51-15.65,4.42
	c-2.69-2.94-4.35-6.83-4.35-11.12C16.35,11.4,23.75,4,32.85,4z M4.01,31.8c-0.16-0.44,0.95-3.2,8.66-7.8
	c0.54,3.1,1.76,5.96,3.53,8.41C8.65,33.51,4.39,32.87,4.01,31.8z M32.85,37c-2.99,0-5.79-0.81-8.22-2.21
	c4.8-1.14,9.44-2.55,13.04-3.81c3.02-1.06,6.69-2.5,10.42-4.19C45.62,32.77,39.72,37,32.85,37z M53.32,19.81
	c-0.12-3.48-1.1-6.73-2.74-9.57c9.88-1.68,13.65-0.37,13.89,0.32C64.87,11.73,61.31,15.44,53.32,19.81z"/>
</svg>
