<?xml version="1.0" encoding="utf-8"?>
<!-- Generator: Adobe Illustrator 27.0.1, SVG Export Plug-In . SVG Version: 6.00 Build 0)  -->
<svg version="1.1" id="Layer_1" xmlns="http://www.w3.org/2000/svg" xmlns:xlink="http://www.w3.org/1999/xlink" x="0px" y="0px"
	 viewBox="0 0 51.45 55.44" style="enable-background:new 0 0 51.45 55.44;" xml:space="preserve">
<style type="text/css">
	.st0{fill:#313131;}
</style>
<g>
	<path class="st0" d="M29,20.5c0,4.69-3.81,8.5-8.5,8.5v4C27.39,33,33,27.39,33,20.5H29z"/>
	<path class="st0" d="M50.47,49.74L35.34,34.61C38.84,30.93,41,25.97,41,20.5C41,9.2,31.8,0,20.5,0C9.2,0,0,9.2,0,20.5
		S9.2,41,20.5,41c3.41,0,6.62-0.85,9.45-2.33l15.79,15.79c0.65,0.65,1.51,0.98,2.36,0.98s1.71-0.33,2.37-0.98
		c0.63-0.63,0.98-1.47,0.98-2.36C51.45,51.21,51.1,50.37,50.47,49.74z M4,20.5C4,11.4,11.4,4,20.5,4S37,11.4,37,20.5
		C37,29.6,29.6,37,20.5,37S4,29.6,4,20.5z"/>
</g>
</svg>
