<svg xmlns="http://www.w3.org/2000/svg" version="1.1" viewBox="-5.0 -10.0 110.0 110.0" fill="currentColor">
 <path d="m82.754 35.262c0.007813 6.3242-2.7461 13.734-6.7305 20.957-2.8516 5.168-6.3477 10.277-9.9023 14.828 2.5352 1.1172 4.6836 2.5 6.2969 4.0742 2.2617 2.2031 3.5469 4.7852 3.5469 7.5977 0 4.3906-3.1445 8.2344-8.2188 10.891-4.5938 2.4023-10.871 3.8906-17.746 3.8906-6.8711 0-13.152-1.4883-17.746-3.8906-5.0781-2.6562-8.2188-6.5-8.2188-10.891 0-2.8047 1.2812-5.3906 3.543-7.5898 1.6094-1.5703 3.75-2.9531 6.2812-4.0703-3.5508-4.5391-7.043-9.6328-9.8906-14.793-3.9805-7.2148-6.7305-14.633-6.7148-21-0.011718-9.0391 3.6562-17.227 9.5859-23.156 5.9297-5.9375 14.121-9.6055 23.164-9.6055 9.043 0 17.234 3.668 23.164 9.5977l0.13281 0.14453c5.8477 5.918 9.4609 14.051 9.457 23.02zm-19.918 39.816c-1.5859 1.8633-3.1445 3.5859-4.625 5.1172-1.1094 1.1484-2.3633 2.0156-3.7383 2.6016-1.3906 0.58984-2.8867 0.89062-4.4688 0.89062-1.5742 0-3.0664-0.29688-4.4609-0.88672-1.3906-0.58594-2.6445-1.4531-3.7422-2.5859-1.4883-1.5352-3.0586-3.2617-4.6484-5.1328-2.5508 0.96484-4.6406 2.2031-6.0938 3.6172-1.2891 1.2539-2.0195 2.625-2.0195 4.0156 0 2.3906 2.1133 4.6953 5.5234 6.4805 3.8984 2.0391 9.3555 3.3047 15.441 3.3047 6.0859 0 11.543-1.2656 15.441-3.3047 3.4141-1.7852 5.5234-4.0859 5.5234-6.4805 0-1.3906-0.73438-2.7656-2.0234-4.0234-1.4531-1.4141-3.5508-2.6523-6.1055-3.6172zm-12.836-55.996c4.457 0 8.5 1.8125 11.434 4.7461 2.9336 2.9219 4.7461 6.9688 4.7461 11.434 0 4.4531-1.8125 8.4961-4.7383 11.43l-0.007812 0.007813c-2.9375 2.9297-6.9766 4.7383-11.43 4.7383s-8.4961-1.8125-11.43-4.7383l-0.007813-0.007813c-2.9297-2.9375-4.7383-6.9766-4.7383-11.43 0-4.4648 1.8125-8.5117 4.7383-11.438l0.14844-0.13672c2.918-2.8477 6.9062-4.6055 11.289-4.6055zm7.9023 8.2695c-2.0156-2.0195-4.8086-3.2695-7.9023-3.2695-3.0391 0-5.7891 1.2031-7.793 3.1523l-0.11328 0.12109c-2.0195 2.0195-3.2734 4.8164-3.2734 7.9062 0 3.0938 1.25 5.8906 3.2617 7.9023l0.007813 0.007813c2.0156 2.0156 4.8086 3.2617 7.9023 3.2617s5.8906-1.25 7.9023-3.2617l0.007813-0.007813c2.0156-2.0156 3.2617-4.8086 3.2617-7.9023 0-3.0859-1.2539-5.8828-3.2734-7.9102zm13.746 26.465c3.6289-6.5703 6.1328-13.172 6.1211-18.555-0.011719-7.6094-3.0703-14.504-8.0195-19.52l-0.12109-0.11328c-5.0195-5.0195-11.965-8.1289-19.629-8.1289-7.668 0-14.609 3.1094-19.629 8.1289-5.0234 5.0156-8.1289 11.961-8.1289 19.633-0.023438 5.4258 2.4805 12.031 6.1016 18.598 4.7852 8.6758 11.48 17.16 17.027 22.879 0.64062 0.66016 1.3477 1.1562 2.1016 1.4766 0.74609 0.31641 1.5938 0.47656 2.5273 0.47656 0.92578 0 1.7656-0.16016 2.5156-0.48047 0.76562-0.32422 1.4688-0.81641 2.1016-1.4688 5.5469-5.7383 12.246-14.25 17.031-22.926z"/></svg>