<svg xmlns="http://www.w3.org/2000/svg" viewBox="0 0 10.583333 13.2291675" version="1.1" x="0px" y="0px"><g transform="translate(0,0.5291667)"><path style="color:currentColor;paint-order:fill markers stroke;" d="m 2.6379522,1.4135878 c -0.19279,8e-4 -0.38758,0.013 -0.583569,0.035 a 0.26459551,0.26459551 0 0 0 -0.234088,0.262787 v 0.359681 h -0.761961 a 0.26459551,0.26459551 0 0 0 -0.26458603,0.264486 v 5.511414 a 0.26459551,0.26459551 0 0 0 0.38508003,0.235588 c 1.098743,-0.562471 2.544068,-0.754561 4.073289,-0.521273 a 0.26456906,0.26456906 0 0 0 0.01,5e-4 0.26456906,0.26456906 0 0 0 0.018,0 0.26459551,0.26459551 0 0 0 0.011,4e-4 0.26459551,0.26459551 0 0 0 0.011,-5e-4 0.26456906,0.26456906 0 0 0 0.019,0 0.26456906,0.26456906 0 0 0 0.01,-5e-4 c 1.52932,-0.233288 2.974645,-0.041 4.073388,0.521273 a 0.26459551,0.26459551 0 0 0 0.38508,-0.235588 v -5.511414 a 0.26459551,0.26459551 0 0 0 -0.26459,-0.264486 h -0.76236 v -0.359681 a 0.26459551,0.26459551 0 0 0 -0.234088,-0.262787 c -0.19599,-0.023 -0.39078,-0.034 -0.58357,-0.035 -0.97185,0 -1.892702,0.266986 -2.653862,0.792459 -0.761161,-0.525473 -1.682013,-0.796959 -2.653963,-0.792459 z m 0,0.528873 c 0.887154,0 1.712811,0.246987 2.387076,0.724462 v 4.137985 c -0.784259,-0.460776 -1.711411,-0.672365 -2.677861,-0.614368 v -3.8501 a 0.26456906,0.26456906 0 0 0 2e-4,0 0.26456906,0.26456906 0 0 0 -2e-4,0 v -0.38098 c 0.09799,-0.01 0.19459,-0.01 0.290785,-0.011 z m 5.303225,0 c 0.096,5e-4 0.19329,0 0.290785,0.011 v 4.23728 c -0.96645,-0.058 -1.893602,0.153592 -2.677761,0.614368 v -4.137985 c 0.674265,-0.477475 1.499822,-0.728962 2.386976,-0.724462 z m -6.620556,0.657965 h 0.497374 v 3.878599 a 0.26459551,0.26459551 0 0 0 0.295085,0.262887 c 0.682064,-0.079 1.33933,-0.011 1.933699,0.19329 -0.985549,-0.01 -1.916,0.160191 -2.726158,0.498474 z m 7.440514,0 h 0.497774 v 4.83325 c -0.810258,-0.338383 -1.74081,-0.505474 -2.726459,-0.498474 0.594269,-0.20379 1.251535,-0.272486 1.9336,-0.19329 a 0.26459551,0.26459551 0 0 0 0.295085,-0.262887 z" fill="currentColor" fill-rule="evenodd" stroke-width="0.00247292" stroke-linecap="round" stroke-linejoin="round"/></g></svg>