<svg xmlns="http://www.w3.org/2000/svg" version="1.1" viewBox="-5.0 -10.0 110.0 110.0" fill="currentColor">
 <path d="m88.891 4.8594h-77.781c-4.582 0-8.332 3.75-8.332 8.332v50c0 4.582 3.75 8.332 8.332 8.332h77.777c4.582 0 8.332-3.75 8.332-8.332l0.003906-49.996c0-4.582-3.75-8.332-8.332-8.332zm2.7773 58.336c0 1.5273-1.25 2.7773-2.7773 2.7773h-77.781c-1.5273 0-2.7773-1.25-2.7773-2.7773v-50c0-1.5273 1.25-2.7773 2.7773-2.7773h77.777c1.5273 0 2.7773 1.25 2.7773 2.7773v50zm-30.391-29.805-17-9.832c-1.75-1-3.8047-1-5.5547 0s-2.7773 2.8047-2.7773 4.8047v19.641c0 2 1.0273 3.8047 2.7773 4.8047 0.85938 0.5 1.832 0.75 2.7773 0.75s1.918-0.25 2.7773-0.75l17-9.832c1.75-1 2.7773-2.8047 2.7773-4.8047s-1.0273-3.8047-2.7773-4.8047zm-19.777 14.637v-19.641l17 9.832-17 9.832zm52.945 34.613h-58.777c-1.1953-4-4.8906-6.9453-9.2773-6.9453-4.3906 0-8.0547 2.9453-9.2773 6.9453h-11.559c-1.5273 0-2.7773 1.25-2.7773 2.7773 0 1.5273 1.25 2.7773 2.7773 2.7773h11.555c1.1953 4 4.8906 6.9453 9.2773 6.9453 4.3906 0 8.0547-2.9453 9.2773-6.9453h58.777c1.5273 0 2.7773-1.25 2.7773-2.7773 0-1.5273-1.25-2.7773-2.7773-2.7773zm-68.055 6.9414c-2.3047 0-4.168-1.8594-4.168-4.168 0-2.3047 1.8594-4.168 4.168-4.168 2.3047 0 4.168 1.8594 4.168 4.168 0 2.3047-1.8594 4.168-4.168 4.168z"/></svg>