<svg xmlns="http://www.w3.org/2000/svg" version="1.1" viewBox="-5.0 -10.0 110.0 110.0" fill="currentColor">
 <g>
  <path d="m66.918 94.793c-2.668 0-5.168-1.457-6.418-3.832-0.20703-0.375-0.375-0.83203-0.5-1.207l-10.293-30.793c-0.91797-2.625-0.25-5.543 1.75-7.5 2-2 4.875-2.668 7.5-1.75l30.793 10.293c0.33203 0.125 0.83203 0.25 1.332 0.58203 2.418 1.293 3.918 4.082 3.668 7-0.25 2.957-2.168 5.332-5 6.25l-11.457 3.832c-0.33203 0.125-0.54297 0.33203-0.66797 0.66797l-3.832 11.457c-0.91797 2.793-3.293 4.707-6.25 4.957h-0.66797zm-10.336-39.25c-0.33203 0-0.58203 0.16797-0.70703 0.29297-0.16797 0.16797-0.41797 0.54297-0.25 1.082l10.293 30.832c0.375 0.79297 0.91797 0.75 1.082 0.75 0.45703 0 0.75-0.29297 0.875-0.70703l3.832-11.5c0.75-2.207 2.418-3.875 4.625-4.582l11.457-3.832c0.45703-0.125 0.66797-0.45703 0.70703-0.875 0-0.16797 0-0.70703-0.5-1l-31.082-10.375s-0.25-0.082031-0.375-0.082031z"/>
  <path d="m56.832 92.918c-0.33203-0.54297-0.58203-1.293-0.79297-1.918l-1.332-4c-1.293 0.83203-2.625 1.375-4 1.5h-0.70703-0.75c-5.418-0.54297-11.082-7.625-14.293-18.707h14l-2.082-6.25h-13.332c-0.75-4.168-1.207-8.668-1.207-13.543s0.45703-9.375 1.207-13.543h33c0.66797 3.625 1.043 7.582 1.125 11.75l6.332 2.125v-0.33203c0-4.75-0.375-9.293-1.082-13.543h13.125c1.625 4.25 2.543 8.793 2.543 13.543 0 1.707-0.125 3.418-0.33203 5.082l2.918 0.95703c0.45703 0.16797 1.25 0.41797 2.168 0.95703 0.33203 0.16797 0.58203 0.375 0.91797 0.58203 0.41797-2.5 0.66797-5 0.66797-7.582 0-24.082-19.582-44.168-43.332-44.707-0.375-0.042968-0.875-0.082031-1.293-0.082031h-0.25c-0.5 0-0.91797 0-1.043 0.042969h-0.16797-0.082032c-24.09 0.75-43.551 20.75-43.551 44.75s19.582 44.168 43.332 44.707c0.45703 0.042969 0.95703 0.082031 1.457 0.082031h1.125c2.207-0.042968 4.375-0.25 6.543-0.625-0.29297-0.41797-0.625-0.75-0.875-1.168zm26.125-62.711h-11.375c-1.582-6.207-3.918-11.582-6.793-15.707 7.582 3.207 13.918 8.75 18.168 15.707zm-33.664-18.75h0.70703 0.75c5.418 0.54297 11.082 7.625 14.293 18.707h-30.082c3.207-11.082 8.875-18.168 14.332-18.75zm-14.086 3.0859c-2.875 4.168-5.168 9.5-6.75 15.668h-11.375c4.207-6.918 10.543-12.457 18.125-15.668zm-23.75 35.457c0-4.75 0.91797-9.293 2.543-13.543h13.125c-0.70703 4.25-1.082 8.793-1.082 13.543s0.375 9.293 1.082 13.543h-13.125c-1.625-4.25-2.543-8.793-2.543-13.543zm5.5859 19.793h11.375c1.582 6.207 3.918 11.582 6.793 15.707-7.582-3.207-13.918-8.75-18.168-15.707z"/>
 </g>
</svg>