<?xml version="1.0" encoding="UTF-8"?><svg id="a" xmlns="http://www.w3.org/2000/svg" viewBox="0 0 267.33 272.26"><defs><style>.b{fill:#fff;opacity:.5;}</style></defs><circle class="b" cx="73.84" cy="193.17" r="5.11"/><circle class="b" cx="165.9" cy="30.73" r="10.9"/><circle class="b" cx="218.43" cy="89.61" r="6.43"/><circle class="b" cx="36.29" cy="259.78" r="12.48"/><circle class="b" cx="120.06" cy="120.47" r="6.13"/><circle class="b" cx="251.92" cy="126.6" r="4.34"/><circle class="b" cx="244.5" cy="256.23" r="3.08"/><circle class="b" cx="191.94" cy="209.78" r="7.59"/><circle class="b" cx="76.77" cy="4.51" r="4.51"/><circle class="b" cx="31.71" cy="159.67" r="7.9"/><path class="b" d="M17.7,46.72l10.59,2.78c.39,.07,.39,.63,0,.7l-10.59,2.78c-.15,.03-.26,.14-.29,.29l-2.78,15.41c-.07,.39-.63,.39-.7,0l-2.78-15.41c-.03-.15-.14-.26-.29-.29L.29,50.19c-.39-.07-.39-.63,0-.7l10.59-2.78c.15-.03,.26-.14,.29-.29l2.78-15.41c.07-.39,.63-.39,.7,0l2.78,15.41c.03,.15,.14,.26,.29,.29Z"/><path class="b" d="M258.64,178.87l8.46,2.22c.31,.06,.31,.5,0,.56l-8.46,2.22c-.12,.02-.21,.11-.23,.23l-2.22,12.31c-.06,.31-.5,.31-.56,0l-2.22-12.31c-.02-.12-.11-.21-.23-.23l-8.46-2.22c-.31-.06-.31-.5,0-.56l8.46-2.22c.12-.02,.21-.11,.23-.23l2.22-12.31c.06-.31,.5-.31,.56,0l2.22,12.31c.02,.12,.11,.21,.23,.23Z"/><circle class="b" cx="148.96" cy="253.14" r="5.11"/><circle class="b" cx="73.84" cy="80.25" r="2.93"/><circle class="b" cx="260.91" cy="10.94" r="6.43"/></svg>