<?xml version="1.0" encoding="utf-8"?>
<!-- Generator: Adobe Illustrator 27.0.1, SVG Export Plug-In . SVG Version: 6.00 Build 0)  -->
<svg version="1.1" id="Layer_1" xmlns="http://www.w3.org/2000/svg" xmlns:xlink="http://www.w3.org/1999/xlink" x="0px" y="0px"
	 viewBox="0 0 128.73 43.26" style="enable-background:new 0 0 128.73 43.26;" xml:space="preserve">
<style type="text/css">
	.st0{fill:#1B4613;}
</style>
<path class="st0" d="M29.25,40.32c0,0.81-0.3,1.51-0.9,2.11c-0.55,0.55-1.24,0.83-2.05,0.83h-1.86c-1.15,0-2.01-0.49-2.56-1.47
	L8.26,18.18c-0.09-0.17-0.21-0.21-0.38-0.13c-0.17,0.04-0.26,0.13-0.26,0.26v22.02c0,0.81-0.3,1.51-0.9,2.11
	c-0.55,0.55-1.22,0.83-1.98,0.83H2.94c-0.81,0-1.51-0.28-2.11-0.83C0.28,41.83,0,41.13,0,40.32V2.94c0-0.85,0.28-1.56,0.83-2.11
	C1.43,0.28,2.13,0,2.94,0H4.8c1.15,0,2.01,0.49,2.56,1.47l13.63,23.62c0.13,0.17,0.26,0.23,0.38,0.19c0.17-0.04,0.26-0.15,0.26-0.32
	V2.94c0-0.85,0.28-1.56,0.83-2.11C23.06,0.28,23.77,0,24.58,0h1.73c0.81,0,1.49,0.28,2.05,0.83c0.6,0.55,0.9,1.26,0.9,2.11V40.32z
	 M62.21,40.32c0,0.81-0.3,1.51-0.9,2.11c-0.55,0.55-1.22,0.83-1.98,0.83H37.32c-0.77,0-1.45-0.28-2.05-0.83
	c-0.55-0.6-0.83-1.3-0.83-2.11V2.94c0-0.85,0.28-1.56,0.83-2.11C35.87,0.28,36.55,0,37.32,0h22.02c0.77,0,1.43,0.28,1.98,0.83
	c0.6,0.55,0.9,1.26,0.9,2.11v1.73c0,0.81-0.3,1.51-0.9,2.11c-0.55,0.55-1.22,0.83-1.98,0.83H42.82c-0.51,0-0.77,0.28-0.77,0.83v8.51
	c0,0.6,0.26,0.9,0.77,0.9h14.21c0.85,0,1.56,0.28,2.11,0.83c0.55,0.55,0.83,1.24,0.83,2.05v1.79c0,0.81-0.28,1.51-0.83,2.11
	c-0.55,0.55-1.26,0.83-2.11,0.83H42.82c-0.51,0-0.77,0.26-0.77,0.77v8.64c0,0.55,0.26,0.83,0.77,0.83h16.51
	c0.77,0,1.43,0.28,1.98,0.83c0.6,0.55,0.9,1.26,0.9,2.11V40.32z M94.77,4.35l-8.9,16.51c-0.21,0.51-0.21,1,0,1.47l8.9,16.64
	c0.51,0.98,0.49,1.94-0.06,2.88c-0.6,0.94-1.45,1.41-2.56,1.41h-1.92c-1.24,0-2.09-0.51-2.56-1.54l-6.08-11.26
	c-0.04-0.17-0.17-0.26-0.38-0.26c-0.17,0-0.3,0.09-0.38,0.26l-6.08,11.26c-0.17,0.47-0.51,0.85-1.02,1.15
	c-0.47,0.26-0.98,0.38-1.54,0.38h-1.98c-1.07,0-1.9-0.47-2.5-1.41c-0.55-0.94-0.58-1.9-0.06-2.88l8.9-16.64
	c0.21-0.47,0.21-0.96,0-1.47l-8.9-16.51c-0.51-1.07-0.49-2.05,0.06-2.94C68.29,0.47,69.12,0,70.19,0h1.98
	c1.15,0,2.01,0.51,2.56,1.54l6.08,11.33c0.09,0.17,0.21,0.26,0.38,0.26c0.17,0,0.3-0.09,0.38-0.26l6.08-11.33
	C88.22,0.51,89.07,0,90.22,0h1.98c1.07,0,1.9,0.47,2.5,1.41C95.26,2.3,95.28,3.29,94.77,4.35z M128.73,4.67
	c0,0.81-0.28,1.51-0.83,2.11c-0.55,0.55-1.26,0.83-2.11,0.83h-6.72c-0.55,0-0.83,0.28-0.83,0.83v31.87c0,0.81-0.3,1.51-0.9,2.11
	c-0.55,0.55-1.24,0.83-2.05,0.83h-1.66c-0.81,0-1.51-0.28-2.11-0.83c-0.55-0.6-0.83-1.3-0.83-2.11V8.45c0-0.55-0.28-0.83-0.83-0.83
	h-6.78c-0.81,0-1.51-0.28-2.11-0.83c-0.55-0.6-0.83-1.3-0.83-2.11V2.94c0-0.85,0.28-1.56,0.83-2.11c0.6-0.55,1.3-0.83,2.11-0.83
	h22.72c0.85,0,1.56,0.28,2.11,0.83c0.56,0.55,0.83,1.26,0.83,2.11V4.67z"/>
</svg>
