<?xml version="1.0" encoding="utf-8"?>
<!-- Generator: Adobe Illustrator 27.0.1, SVG Export Plug-In . SVG Version: 6.00 Build 0)  -->
<svg version="1.1" id="Layer_1" xmlns="http://www.w3.org/2000/svg" xmlns:xlink="http://www.w3.org/1999/xlink" x="0px" y="0px"
	 viewBox="0 0 370.6 94" style="enable-background:new 0 0 370.6 94;" xml:space="preserve">
<style type="text/css">
	.st0{fill:#D9FF00;}
	.st1{fill:#313131;}
	.st2{fill:#D9D9D9;}
	.st3{fill:#1B4613;}
</style>
<path class="st0" d="M117.8,2h135c6.6,0,12,5.4,12,12v42c0,6.6-5.4,12-12,12h-135c-6.6,0-12-5.4-12-12V14C105.8,7.4,111.2,2,117.8,2
	z"/>
<path class="st1" d="M109.8,78h22c2.2,0,4,1.8,4,4v8c0,2.2-1.8,4-4,4h-22c-2.2,0-4-1.8-4-4v-8C105.8,79.8,107.6,78,109.8,78z"/>
<path class="st1" d="M146.8,78h22c2.2,0,4,1.8,4,4v8c0,2.2-1.8,4-4,4h-22c-2.2,0-4-1.8-4-4v-8C142.8,79.8,144.6,78,146.8,78z"/>
<circle class="st1" cx="256.8" cy="86" r="8"/>
<circle class="st1" cx="235.8" cy="86" r="8"/>
<circle class="st1" cx="214.8" cy="86" r="8"/>
<circle class="st2" cx="310.8" cy="71.5" r="22"/>
<circle class="st2" cx="348.6" cy="37.3" r="22"/>
<circle class="st2" cx="299.5" cy="21.7" r="22"/>
<path class="st1" d="M303.8,20.6c0,3-1.8,5.4-4,5.4s-4-2.4-4-5.4s2.9-17.6,4-17.6S303.8,17.6,303.8,20.6z"/>
<path class="st1" d="M344.9,40c-1.7-2.4-1.7-5.4,0.1-6.7c1.8-1.3,4.6-0.4,6.4,2c1.7,2.4,8,16,7.1,16.6
	C357.6,52.6,346.7,42.5,344.9,40z"/>
<path class="st1" d="M308.7,68.3c2.7-1.3,5.6-0.7,6.6,1.3c1,2-0.5,4.7-3.1,5.9c-2.7,1.3-17.2,4.9-17.6,3.9
	C294,78.5,306,69.6,308.7,68.3z"/>
<rect x="17.8" y="16" class="st1" width="6" height="78"/>
<rect x="45.8" y="6" class="st1" width="6" height="88"/>
<rect x="73.8" class="st1" width="6" height="94"/>
<path class="st2" d="M10.8,28h20c1.7,0,3,1.3,3,3v4c0,1.7-1.3,3-3,3h-20c-1.7,0-3-1.3-3-3v-4C7.8,29.3,9.1,28,10.8,28z"/>
<path class="st2" d="M38.8,71h20c1.7,0,3,1.3,3,3v4c0,1.7-1.3,3-3,3h-20c-1.7,0-3-1.3-3-3v-4C35.8,72.3,37.1,71,38.8,71z"/>
<path class="st2" d="M66.8,46h20c1.7,0,3,1.3,3,3v4c0,1.7-1.3,3-3,3h-20c-1.7,0-3-1.3-3-3v-4C63.8,47.3,65.1,46,66.8,46z"/>
<path class="st3" d="M147,48.2c0,1.5-0.4,2.9-1.2,4.2c-0.8,1.3-1.8,2.3-3.1,3.1s-2.7,1.2-4.2,1.2h-17.1c-0.8,0-1.5-0.3-2.1-0.8
	c-0.6-0.6-0.8-1.3-0.8-2.1V16.3c0-0.9,0.3-1.6,0.8-2.1c0.6-0.6,1.3-0.8,2.1-0.8h16.2c1.6,0,3,0.4,4.2,1.1c1.3,0.8,2.3,1.8,3.1,3.1
	c0.8,1.3,1.1,2.7,1.1,4.3v7.6c0,1.1-0.2,2.2-0.6,3.2c-0.2,0.5-0.2,0.9,0.1,1.4c0.9,1.4,1.4,3,1.4,4.7L147,48.2L147,48.2z
	 M138.6,29.5v-7.6c0-0.3-0.1-0.5-0.3-0.6c-0.2-0.2-0.4-0.3-0.6-0.3h-10.6c-0.6,0-0.8,0.3-0.8,0.8v7.7c0,0.5,0.3,0.8,0.8,0.8h10.6
	c0.2,0,0.4-0.1,0.6-0.3C138.5,29.9,138.6,29.7,138.6,29.5z M139.4,48.2v-9.3c0-0.6-0.3-0.9-0.8-0.9h-11.5c-0.6,0-0.8,0.3-0.8,0.8
	v9.5c0,0.5,0.3,0.8,0.8,0.8h11.5c0.2,0,0.4-0.1,0.6-0.3C139.3,48.6,139.4,48.4,139.4,48.2z M185.3,52.8c0.3,1,0.1,1.9-0.4,2.7
	c-0.6,0.8-1.3,1.2-2.4,1.2h-1.9c-0.6,0-1.2-0.2-1.7-0.6c-0.5-0.4-0.9-0.8-1.1-1.4l-2.4-7.4c-0.2-0.5-0.5-0.8-1.1-0.8h-10.9
	c-0.6,0-0.9,0.3-1.1,0.8l-2.4,7.4c-0.2,0.5-0.6,1-1.1,1.4c-0.5,0.4-1.1,0.6-1.7,0.6h-1.9c-1,0-1.8-0.4-2.4-1.2
	c-0.6-0.8-0.7-1.8-0.4-2.7l12.4-37.4c0.2-0.6,0.6-1.1,1-1.4c0.5-0.4,1.1-0.6,1.7-0.6h2.6c0.6,0,1.1,0.2,1.7,0.6
	c0.5,0.3,0.8,0.8,1,1.4L185.3,52.8z M172.4,38.1l-3.2-9.8c-0.2-0.3-0.5-0.3-0.7,0l-3.2,9.8c-0.1,0.2-0.1,0.4,0.1,0.6
	c0.1,0.2,0.3,0.3,0.5,0.3h5.9c0.2,0,0.4-0.1,0.5-0.3C172.5,38.5,172.5,38.3,172.4,38.1z M219,48.2c0,1.5-0.4,2.9-1.2,4.2
	c-0.8,1.3-1.8,2.3-3.1,3.1s-2.7,1.2-4.2,1.2h-11.5c-1.5,0-3-0.4-4.3-1.2c-1.3-0.8-2.3-1.8-3.1-3.1c-0.8-1.3-1.2-2.7-1.2-4.2V21.9
	c0-1.6,0.4-3,1.2-4.3c0.8-1.3,1.8-2.3,3.1-3.1c1.3-0.8,2.8-1.2,4.3-1.2h11.5c1.5,0,2.9,0.4,4.2,1.1c1.3,0.8,2.3,1.8,3.1,3.1
	c0.8,1.3,1.1,2.7,1.1,4.3v1.7c0,0.8-0.3,1.5-0.8,2.1c-0.6,0.5-1.3,0.8-2.1,0.8h-1.7c-0.8,0-1.5-0.3-2.1-0.8
	c-0.6-0.6-0.8-1.2-0.8-2.1v-1.7c0-0.6-0.3-0.9-0.8-0.9h-11.5c-0.6,0-0.8,0.3-0.8,0.9v26.3c0,0.2,0.1,0.4,0.3,0.6
	c0.2,0.2,0.4,0.3,0.6,0.3h11.5c0.2,0,0.4-0.1,0.6-0.3c0.2-0.2,0.3-0.4,0.3-0.6v-1.9c0-0.8,0.3-1.5,0.8-2c0.6-0.6,1.3-0.9,2.1-0.9
	h1.7c0.9,0,1.6,0.3,2.1,0.9c0.6,0.5,0.8,1.2,0.8,2L219,48.2L219,48.2z M251.8,15.1c0.2,0.5,0.3,1.1,0.2,1.7c0,0.6-0.3,1.1-0.7,1.5
	l-14.7,16.1c-0.4,0.4-0.4,0.8,0,1.2l14.7,16.1c0.4,0.4,0.7,0.9,0.7,1.5c0.1,0.5,0,1.1-0.2,1.6c-0.2,0.5-0.6,1-1.1,1.3
	c-0.5,0.3-1,0.5-1.5,0.5h-2.4c-0.8,0-1.5-0.3-2.1-1l-12.1-13.3c-0.1-0.1-0.2-0.1-0.4-0.1c-0.1,0-0.2,0.1-0.2,0.3v11.1
	c0,0.8-0.3,1.5-0.9,2.1c-0.6,0.5-1.2,0.8-2.1,0.8h-1.8c-0.8,0-1.5-0.3-2.1-0.8c-0.6-0.6-0.8-1.3-0.8-2.1V16.3c0-0.9,0.3-1.6,0.8-2.1
	c0.6-0.6,1.2-0.8,2.1-0.8h1.8c0.8,0,1.5,0.3,2.1,0.8c0.6,0.6,0.9,1.3,0.9,2.1v11.1c0,0.2,0.1,0.3,0.2,0.3c0.2,0,0.3,0,0.4-0.1
	l12.1-13.3c0.6-0.6,1.4-1,2.2-1h2.4C250.4,13.4,251.3,13.9,251.8,15.1z"/>
<polygon class="st3" points="224,63.7 212.6,26.2 207.9,40.4 164.6,40.4 159.2,31.2 146,52.6 135,30.6 129.4,39.5 105.8,39.5 
	105.8,33.5 126.1,33.5 135.6,18.3 146.6,40.3 159.4,19.5 168,34.4 203.6,34.4 212.9,6.3 224.5,44.8 228.7,33.5 264.8,33.5 
	264.8,39.5 232.9,39.5 "/>
<path class="st3" d="M150.2,53.7c0,0.8-0.3,1.5-0.9,2.1c-0.6,0.5-1.2,0.8-2.1,0.8h-1.9c-1.1,0-2-0.5-2.6-1.5l-13.6-23.6
	c-0.1-0.2-0.2-0.2-0.4-0.1c-0.2,0-0.3,0.1-0.3,0.3v22c0,0.8-0.3,1.5-0.9,2.1c-0.6,0.5-1.2,0.8-2,0.8h-1.8c-0.8,0-1.5-0.3-2.1-0.8
	c-0.6-0.6-0.8-1.3-0.8-2.1V16.3c0-0.9,0.3-1.6,0.8-2.1c0.6-0.6,1.3-0.8,2.1-0.8h1.9c1.1,0,2,0.5,2.6,1.5l13.6,23.6
	c0.1,0.2,0.3,0.2,0.4,0.2c0.2,0,0.3-0.1,0.3-0.3v-22c0-0.9,0.3-1.6,0.8-2.1c0.6-0.6,1.3-0.8,2.1-0.8h1.7c0.8,0,1.5,0.3,2,0.8
	c0.6,0.6,0.9,1.3,0.9,2.1L150.2,53.7L150.2,53.7z M183.1,53.7c0,0.8-0.3,1.5-0.9,2.1c-0.5,0.5-1.2,0.8-2,0.8h-22
	c-0.8,0-1.4-0.3-2.1-0.8c-0.6-0.6-0.8-1.3-0.8-2.1V16.3c0-0.9,0.3-1.6,0.8-2.1c0.6-0.6,1.3-0.8,2.1-0.8h22c0.8,0,1.4,0.3,2,0.8
	c0.6,0.6,0.9,1.3,0.9,2.1V18c0,0.8-0.3,1.5-0.9,2.1c-0.6,0.6-1.2,0.8-2,0.8h-16.5c-0.5,0-0.8,0.3-0.8,0.8v8.5c0,0.6,0.3,0.9,0.8,0.9
	h14.2c0.9,0,1.6,0.3,2.1,0.8c0.5,0.5,0.8,1.2,0.8,2v1.8c0,0.8-0.3,1.5-0.8,2.1c-0.6,0.5-1.3,0.8-2.1,0.8h-14.2
	c-0.5,0-0.8,0.3-0.8,0.8v8.6c0,0.5,0.3,0.8,0.8,0.8h16.5c0.8,0,1.4,0.3,2,0.8c0.6,0.5,0.9,1.3,0.9,2.1
	C183.1,52,183.1,53.7,183.1,53.7z M215.7,17.7l-8.9,16.5c-0.2,0.5-0.2,1,0,1.5l8.9,16.6c0.5,1,0.5,1.9-0.1,2.9
	c-0.6,0.9-1.4,1.4-2.6,1.4h-1.9c-1.2,0-2.1-0.5-2.6-1.5l-6.1-11.3c0-0.2-0.2-0.3-0.4-0.3c-0.2,0-0.3,0.1-0.4,0.3l-6.1,11.3
	c-0.2,0.5-0.5,0.8-1,1.2c-0.5,0.3-1,0.4-1.5,0.4h-2c-1.1,0-1.9-0.5-2.5-1.4c-0.6-0.9-0.6-1.9-0.1-2.9l8.9-16.6c0.2-0.5,0.2-1,0-1.5
	l-8.9-16.5c-0.5-1.1-0.5-2.1,0.1-2.9c0.6-0.9,1.4-1.4,2.5-1.4h2c1.1,0,2,0.5,2.6,1.5l6.1,11.3c0.1,0.2,0.2,0.3,0.4,0.3
	c0.2,0,0.3-0.1,0.4-0.3l6.1-11.3c0.6-1,1.4-1.5,2.6-1.5h2c1.1,0,1.9,0.5,2.5,1.4C216.2,15.7,216.2,16.7,215.7,17.7z M249.6,18
	c0,0.8-0.3,1.5-0.8,2.1c-0.5,0.6-1.3,0.8-2.1,0.8H240c-0.6,0-0.8,0.3-0.8,0.8v31.9c0,0.8-0.3,1.5-0.9,2.1c-0.6,0.5-1.2,0.8-2.1,0.8
	h-1.7c-0.8,0-1.5-0.3-2.1-0.8c-0.6-0.6-0.8-1.3-0.8-2.1V21.8c0-0.6-0.3-0.8-0.8-0.8H224c-0.8,0-1.5-0.3-2.1-0.8
	c-0.6-0.6-0.8-1.3-0.8-2.1v-1.7c0-0.9,0.3-1.6,0.8-2.1c0.6-0.6,1.3-0.8,2.1-0.8h22.7c0.9,0,1.6,0.3,2.1,0.8c0.6,0.6,0.8,1.3,0.8,2.1
	L249.6,18L249.6,18z"/>
</svg>
