<?xml version="1.0" encoding="utf-8"?>
<!-- Generator: Adobe Illustrator 27.0.1, SVG Export Plug-In . SVG Version: 6.00 Build 0)  -->
<svg version="1.1" id="Layer_1" xmlns="http://www.w3.org/2000/svg" xmlns:xlink="http://www.w3.org/1999/xlink" x="0px" y="0px"
	 viewBox="0 0 476 194" style="enable-background:new 0 0 476 194;" xml:space="preserve">
<style type="text/css">
	.st0{fill:#6F6F6F;}
	.st1{fill:#D9FF00;}
	.st2{fill:#313131;}
	.st3{fill:#D9D9D9;}
</style>
<path class="st0" d="M476,97c0,53.57-106.56,97-238,97C106.56,194,0,150.57,0,97C0,43.43,106.56,0,238,0C369.44,0,476,43.43,476,97z
	"/>
<path class="st1" d="M171,31h135c6.63,0,12,5.37,12,12v42c0,6.63-5.37,12-12,12H171c-6.63,0-12-5.37-12-12V43
	C159,36.37,164.37,31,171,31z"/>
<path class="st2" d="M163,107h22c2.21,0,4,1.79,4,4v8c0,2.21-1.79,4-4,4h-22c-2.21,0-4-1.79-4-4v-8C159,108.79,160.79,107,163,107z"
	/>
<path class="st2" d="M200,107h22c2.21,0,4,1.79,4,4v8c0,2.21-1.79,4-4,4h-22c-2.21,0-4-1.79-4-4v-8C196,108.79,197.79,107,200,107z"
	/>
<circle class="st2" cx="310" cy="115" r="8"/>
<circle class="st2" cx="289" cy="115" r="8"/>
<circle class="st2" cx="268" cy="115" r="8"/>
<circle class="st3" cx="363.98" cy="100.51" r="22"/>
<circle class="st3" cx="401.78" cy="66.33" r="22"/>
<circle class="st3" cx="352.67" cy="50.67" r="22"/>
<path class="st2" d="M357,49.62c0,2.97-1.79,5.38-4,5.38s-4-2.41-4-5.38c0-2.97,2.91-17.62,4-17.62S357,46.64,357,49.62z"/>
<path class="st2" d="M398.15,69.05c-1.74-2.41-1.7-5.41,0.09-6.71c1.79-1.29,4.65-0.39,6.39,2.02c1.74,2.41,7.96,15.98,7.08,16.62
	C410.83,81.62,399.9,71.46,398.15,69.05z"/>
<path class="st2" d="M361.91,97.31c2.68-1.28,5.63-0.69,6.58,1.3c0.95,2-0.46,4.65-3.15,5.92c-2.68,1.28-17.16,4.93-17.63,3.95
	C347.25,107.5,359.23,98.59,361.91,97.31z"/>
<rect x="71" y="45" class="st2" width="6" height="78"/>
<rect x="99" y="35" class="st2" width="6" height="88"/>
<rect x="127" y="29" class="st2" width="6" height="94"/>
<path class="st3" d="M64,57h20c1.66,0,3,1.34,3,3v4c0,1.66-1.34,3-3,3H64c-1.66,0-3-1.34-3-3v-4C61,58.34,62.34,57,64,57z"/>
<path class="st3" d="M92,100h20c1.66,0,3,1.34,3,3v4c0,1.66-1.34,3-3,3H92c-1.66,0-3-1.34-3-3v-4C89,101.34,90.34,100,92,100z"/>
<path class="st3" d="M120,75h20c1.66,0,3,1.34,3,3v4c0,1.66-1.34,3-3,3h-20c-1.66,0-3-1.34-3-3v-4C117,76.34,118.34,75,120,75z"/>
</svg>
