<?xml version="1.0" encoding="utf-8"?>
<!-- Generator: Adobe Illustrator 27.0.1, SVG Export Plug-In . SVG Version: 6.00 Build 0)  -->
<svg version="1.1" id="Layer_1" xmlns="http://www.w3.org/2000/svg" xmlns:xlink="http://www.w3.org/1999/xlink" x="0px" y="0px"
	 viewBox="0 0 370.57 94" style="enable-background:new 0 0 370.57 94;" xml:space="preserve">
<style type="text/css">
	.st0{fill:#D9FF00;}
	.st1{fill:#313131;}
	.st2{fill:#D9D9D9;}
</style>
<path class="st0" d="M117.78,2h135c6.63,0,12,5.37,12,12v42c0,6.63-5.37,12-12,12h-135c-6.63,0-12-5.37-12-12V14
	C105.78,7.37,111.16,2,117.78,2z"/>
<path class="st1" d="M109.78,78h22c2.21,0,4,1.79,4,4v8c0,2.21-1.79,4-4,4h-22c-2.21,0-4-1.79-4-4v-8
	C105.78,79.79,107.57,78,109.78,78z"/>
<path class="st1" d="M146.78,78h22c2.21,0,4,1.79,4,4v8c0,2.21-1.79,4-4,4h-22c-2.21,0-4-1.79-4-4v-8
	C142.78,79.79,144.57,78,146.78,78z"/>
<circle class="st1" cx="256.78" cy="86" r="8"/>
<circle class="st1" cx="235.78" cy="86" r="8"/>
<circle class="st1" cx="214.78" cy="86" r="8"/>
<circle class="st2" cx="310.76" cy="71.51" r="22"/>
<circle class="st2" cx="348.56" cy="37.33" r="22"/>
<circle class="st2" cx="299.45" cy="21.67" r="22"/>
<path class="st1" d="M303.78,20.62c0,2.97-1.79,5.38-4,5.38s-4-2.41-4-5.38c0-2.97,2.91-17.62,4-17.62S303.78,17.64,303.78,20.62z"
	/>
<path class="st1" d="M344.94,40.05c-1.74-2.41-1.7-5.41,0.09-6.71c1.79-1.29,4.65-0.39,6.39,2.02c1.74,2.41,7.96,15.98,7.08,16.62
	C357.62,52.62,346.68,42.46,344.94,40.05z"/>
<path class="st1" d="M308.69,68.31c2.68-1.28,5.63-0.69,6.58,1.3c0.95,2-0.46,4.65-3.15,5.92c-2.68,1.28-17.16,4.93-17.63,3.95
	C294.03,78.5,306.01,69.59,308.69,68.31z"/>
<rect x="17.78" y="16" class="st1" width="6" height="78"/>
<rect x="45.78" y="6" class="st1" width="6" height="88"/>
<rect x="73.78" class="st1" width="6" height="94"/>
<path class="st2" d="M10.78,28h20c1.66,0,3,1.34,3,3v4c0,1.66-1.34,3-3,3h-20c-1.66,0-3-1.34-3-3v-4C7.78,29.34,9.13,28,10.78,28z"
	/>
<path class="st2" d="M38.78,71h20c1.66,0,3,1.34,3,3v4c0,1.66-1.34,3-3,3h-20c-1.66,0-3-1.34-3-3v-4C35.78,72.34,37.13,71,38.78,71z
	"/>
<path class="st2" d="M66.78,46h20c1.66,0,3,1.34,3,3v4c0,1.66-1.34,3-3,3h-20c-1.66,0-3-1.34-3-3v-4C63.78,47.34,65.13,46,66.78,46z
	"/>
</svg>
