<?xml version="1.0" encoding="utf-8"?>
<!-- Generator: Adobe Illustrator 27.0.1, SVG Export Plug-In . SVG Version: 6.00 Build 0)  -->
<svg version="1.1" id="Layer_1" xmlns="http://www.w3.org/2000/svg" xmlns:xlink="http://www.w3.org/1999/xlink" x="0px" y="0px"
	 viewBox="0 0 133.4 43.26" style="enable-background:new 0 0 133.4 43.26;" xml:space="preserve">
<style type="text/css">
	.st0{fill:#1B4613;}
</style>
<path class="st0" d="M28.48,34.82c0,1.54-0.38,2.94-1.15,4.22c-0.77,1.28-1.79,2.3-3.07,3.07c-1.28,0.77-2.69,1.15-4.22,1.15H2.94
	c-0.81,0-1.51-0.28-2.11-0.83C0.28,41.83,0,41.13,0,40.32V2.94c0-0.85,0.28-1.56,0.83-2.11C1.43,0.28,2.13,0,2.94,0h16.19
	c1.58,0,2.99,0.38,4.22,1.15c1.28,0.77,2.3,1.79,3.07,3.07s1.15,2.71,1.15,4.29v7.62c0,1.15-0.21,2.22-0.64,3.2
	c-0.21,0.47-0.17,0.94,0.13,1.41c0.94,1.41,1.41,2.99,1.41,4.74V34.82z M20.03,16.13V8.51c0-0.26-0.11-0.47-0.32-0.64
	c-0.17-0.17-0.36-0.26-0.58-0.26H8.51c-0.55,0-0.83,0.28-0.83,0.83v7.68c0,0.55,0.28,0.83,0.83,0.83h10.62
	c0.21,0,0.41-0.09,0.58-0.26C19.93,16.53,20.03,16.34,20.03,16.13z M20.86,34.82v-9.34c0-0.6-0.28-0.9-0.83-0.9H8.51
	c-0.55,0-0.83,0.28-0.83,0.83v9.47c0,0.55,0.28,0.83,0.83,0.83h11.52c0.21,0,0.41-0.09,0.58-0.26
	C20.78,35.24,20.86,35.03,20.86,34.82z M66.78,39.42c0.26,0.98,0.11,1.88-0.45,2.69c-0.55,0.77-1.34,1.15-2.37,1.15H62.1
	c-0.6,0-1.17-0.19-1.73-0.58c-0.51-0.38-0.87-0.85-1.09-1.41l-2.43-7.36c-0.17-0.55-0.53-0.83-1.09-0.83H44.82
	c-0.55,0-0.92,0.28-1.09,0.83l-2.43,7.36c-0.21,0.55-0.58,1.02-1.09,1.41c-0.51,0.38-1.09,0.58-1.73,0.58h-1.86
	c-1.02,0-1.81-0.38-2.37-1.15c-0.6-0.85-0.73-1.75-0.38-2.69L46.3,1.98c0.21-0.6,0.55-1.07,1.02-1.41C47.83,0.19,48.39,0,48.98,0
	h2.62c0.6,0,1.15,0.19,1.66,0.58c0.51,0.34,0.85,0.81,1.02,1.41L66.78,39.42z M53.85,24.7l-3.2-9.79c-0.21-0.3-0.45-0.3-0.7,0
	l-3.2,9.79c-0.09,0.21-0.06,0.41,0.06,0.58c0.13,0.17,0.3,0.26,0.51,0.26h5.95c0.21,0,0.38-0.09,0.51-0.26
	C53.91,25.11,53.93,24.92,53.85,24.7z M100.48,34.82c0,1.54-0.38,2.94-1.15,4.22c-0.77,1.28-1.79,2.3-3.07,3.07
	c-1.28,0.77-2.69,1.15-4.22,1.15H80.51c-1.54,0-2.97-0.38-4.29-1.15c-1.28-0.77-2.3-1.79-3.07-3.07C72.38,37.76,72,36.35,72,34.82
	V8.51c0-1.58,0.38-3.01,1.15-4.29c0.77-1.28,1.79-2.3,3.07-3.07C77.55,0.38,78.98,0,80.51,0h11.52c1.54,0,2.94,0.38,4.22,1.15
	s2.3,1.79,3.07,3.07c0.77,1.28,1.15,2.71,1.15,4.29v1.73c0,0.81-0.28,1.49-0.83,2.05c-0.56,0.55-1.26,0.83-2.11,0.83h-1.73
	c-0.81,0-1.51-0.28-2.11-0.83c-0.55-0.55-0.83-1.24-0.83-2.05V8.51c0-0.6-0.28-0.9-0.83-0.9H80.51c-0.55,0-0.83,0.3-0.83,0.9v26.3
	c0,0.21,0.09,0.43,0.26,0.64c0.17,0.17,0.36,0.26,0.58,0.26h11.52c0.21,0,0.41-0.09,0.58-0.26c0.17-0.21,0.26-0.43,0.26-0.64V32.9
	c0-0.81,0.28-1.49,0.83-2.05c0.6-0.6,1.3-0.9,2.11-0.9h1.73c0.85,0,1.56,0.3,2.11,0.9c0.55,0.55,0.83,1.24,0.83,2.05V34.82z
	 M133.21,1.73c0.21,0.51,0.28,1.07,0.19,1.66c-0.04,0.55-0.28,1.07-0.7,1.54l-14.66,16.13c-0.38,0.38-0.38,0.79,0,1.22l14.66,16.06
	c0.43,0.43,0.66,0.94,0.7,1.54c0.08,0.55,0.02,1.09-0.19,1.6c-0.21,0.55-0.58,1-1.09,1.34c-0.47,0.3-0.98,0.45-1.54,0.45h-2.43
	c-0.77,0-1.47-0.32-2.11-0.96l-12.1-13.31c-0.08-0.13-0.21-0.15-0.38-0.06c-0.13,0.04-0.19,0.13-0.19,0.26v11.14
	c0,0.81-0.3,1.51-0.9,2.11c-0.56,0.55-1.24,0.83-2.05,0.83h-1.79c-0.81,0-1.49-0.28-2.05-0.83c-0.56-0.6-0.83-1.3-0.83-2.11V2.94
	c0-0.85,0.28-1.56,0.83-2.11c0.56-0.55,1.24-0.83,2.05-0.83h1.79c0.81,0,1.49,0.28,2.05,0.83c0.6,0.55,0.9,1.26,0.9,2.11v11.07
	c0,0.17,0.06,0.28,0.19,0.32c0.17,0.04,0.3,0.02,0.38-0.06l12.1-13.31C126.68,0.32,127.4,0,128.22,0h2.37
	C131.82,0,132.7,0.58,133.21,1.73z"/>
</svg>
